<svg xmlns="http://www.w3.org/2000/svg" version="1.1" xmlns:xlink="http://www.w3.org/1999/xlink" xmlns:svgjs="http://svgjs.com/svgjs" width="1440" height="560" preserveAspectRatio="none" viewBox="0 0 1440 560"><g mask="url(&quot;#SvgjsMask1052&quot;)" fill="none"><rect width="1440" height="560" x="0" y="0" fill="rgba(0, 42, 69, 1)"></rect><path d="M0,649.934C118.957,664.851,183.168,506.576,281.242,437.621C373.943,372.443,507.793,356.296,560.396,255.924C613.368,154.847,566.915,33.77,552.197,-79.394C537.267,-194.193,564.083,-338.117,473.725,-410.485C380.804,-484.906,242.749,-413.764,124.008,-422.332C35.991,-428.683,-45.771,-464.777,-133.392,-454.292C-233.353,-442.33,-338.174,-425.168,-413.207,-358.046C-492.186,-287.394,-545.169,-185.148,-552.439,-79.429C-559.511,23.411,-510.747,121.711,-452.023,206.432C-399.735,281.868,-304.809,308.063,-239.292,372.345C-150.289,459.671,-123.72,634.419,0,649.934" fill="#002034"></path><path d="M1440 1240.187C1571.091 1240.46 1722.453 1234.301 1811.548 1138.1399999999999 1900.018 1042.654 1855.8519999999999 889.579 1882.834 762.235 1902.825 667.887 1937.05 582.362 1949.5720000000001 486.735 1966.621 356.53499999999997 2028.962 218.305 1969.3809999999999 101.28899999999999 1908.022-19.21799999999996 1775.011-113.15899999999999 1640.022-121.21100000000001 1507.054-129.14300000000003 1416.542 10.008000000000038 1293.472 60.97000000000003 1188.397 104.481 1052.965 74.50900000000001 972.731 155.10899999999998 891.661 236.55 888.226 364.701 877.254 479.089 866.717 588.94 879.749 695.796 910.71 801.719 946.085 922.74 972.348 1056.161 1069.444 1136.596 1170.252 1220.107 1309.094 1239.915 1440 1240.187" fill="#003556"></path></g><defs><mask id="SvgjsMask1052"><rect width="1440" height="560" fill="#ffffff"></rect></mask></defs></svg>